<svg width="171" height="137" viewBox="0 0 171 137" fill="none" xmlns="http://www.w3.org/2000/svg">
<circle cx="102.5" cy="68.5" r="65.8987" fill="#E7F0EF" stroke="black" stroke-width="5.20253"/>
<rect y="49" width="68" height="39" fill="#E7F0EF"/>
<path d="M10.576 78V61.728H4.24V60.72H17.92V61.728H11.584V78H10.576ZM24.4368 78.36C23.4288 78.36 22.5928 78.184 21.9288 77.832C21.2648 77.48 20.7688 77.016 20.4408 76.44C20.1128 75.864 19.9488 75.24 19.9488 74.568C19.9488 73.808 20.1128 73.18 20.4408 72.684C20.7768 72.18 21.2128 71.784 21.7488 71.496C22.2848 71.208 22.8608 71 23.4768 70.872C24.2288 70.72 25.0328 70.588 25.8888 70.476C26.7528 70.356 27.5488 70.256 28.2768 70.176C29.0048 70.096 29.5488 70.032 29.9088 69.984L29.5488 70.224C29.5888 68.696 29.3088 67.56 28.7088 66.816C28.1168 66.064 27.0688 65.688 25.5648 65.688C24.4768 65.688 23.6008 65.932 22.9368 66.42C22.2808 66.9 21.8208 67.64 21.5568 68.64L20.4528 68.352C20.7408 67.152 21.3288 66.24 22.2168 65.616C23.1128 64.992 24.2448 64.68 25.6128 64.68C26.8128 64.68 27.8128 64.924 28.6128 65.412C29.4128 65.9 29.9568 66.56 30.2448 67.392C30.3568 67.712 30.4368 68.1 30.4848 68.556C30.5328 69.012 30.5568 69.456 30.5568 69.888V78H29.6208V74.448L30.1008 74.472C29.7568 75.704 29.0728 76.66 28.0488 77.34C27.0248 78.02 25.8208 78.36 24.4368 78.36ZM24.3888 77.352C25.3248 77.352 26.1488 77.184 26.8608 76.848C27.5808 76.512 28.1608 76.028 28.6008 75.396C29.0488 74.756 29.3328 73.992 29.4528 73.104C29.5168 72.656 29.5488 72.176 29.5488 71.664C29.5488 71.152 29.5488 70.784 29.5488 70.56L30.0768 70.968C29.6528 71.008 29.0648 71.064 28.3128 71.136C27.5688 71.2 26.7808 71.288 25.9488 71.4C25.1168 71.504 24.3648 71.64 23.6928 71.808C23.3008 71.904 22.8968 72.056 22.4808 72.264C22.0648 72.472 21.7128 72.764 21.4248 73.14C21.1448 73.516 21.0048 74 21.0048 74.592C21.0048 75.008 21.1088 75.428 21.3168 75.852C21.5248 76.276 21.8728 76.632 22.3608 76.92C22.8568 77.208 23.5328 77.352 24.3888 77.352ZM40.9246 78.336C39.4606 78.336 38.2446 78.032 37.2766 77.424C36.3086 76.808 35.7086 75.96 35.4766 74.88L36.5086 74.688C36.7246 75.488 37.2286 76.128 38.0206 76.608C38.8206 77.088 39.7966 77.328 40.9486 77.328C42.1246 77.328 43.0566 77.076 43.7446 76.572C44.4406 76.068 44.7886 75.384 44.7886 74.52C44.7886 74.048 44.6846 73.664 44.4766 73.368C44.2686 73.064 43.8606 72.788 43.2526 72.54C42.6526 72.292 41.7646 72.008 40.5886 71.688C39.3566 71.352 38.3966 71.028 37.7086 70.716C37.0286 70.396 36.5486 70.04 36.2686 69.648C35.9966 69.248 35.8606 68.76 35.8606 68.184C35.8606 67.496 36.0646 66.888 36.4726 66.36C36.8806 65.832 37.4446 65.42 38.1646 65.124C38.8846 64.828 39.7166 64.68 40.6606 64.68C41.6126 64.68 42.4686 64.84 43.2286 65.16C43.9966 65.472 44.6126 65.912 45.0766 66.48C45.5486 67.04 45.8206 67.688 45.8926 68.424L44.8606 68.616C44.7086 67.712 44.2446 67 43.4686 66.48C42.7006 65.952 41.7406 65.688 40.5886 65.688C39.5086 65.672 38.6246 65.892 37.9366 66.348C37.2566 66.804 36.9166 67.4 36.9166 68.136C36.9166 68.544 37.0326 68.896 37.2646 69.192C37.4966 69.48 37.9006 69.744 38.4766 69.984C39.0526 70.224 39.8526 70.472 40.8766 70.728C42.1726 71.056 43.1806 71.388 43.9006 71.724C44.6286 72.06 45.1366 72.452 45.4246 72.9C45.7206 73.348 45.8686 73.904 45.8686 74.568C45.8686 75.744 45.4286 76.668 44.5486 77.34C43.6686 78.004 42.4606 78.336 40.9246 78.336ZM51.0447 78V60.72H52.0527V71.28L58.5327 65.04H60.0447L53.2767 71.52L61.0767 78H59.3487L52.0527 71.76V78H51.0447ZM64.7913 78V60.72H65.7513L73.0953 76.776L80.3673 60.72H81.3753V77.976H80.3673V63.144L73.6473 78H72.5193L65.7993 63.144V78H64.7913ZM91.0246 78.36C90.0166 78.36 89.1806 78.184 88.5166 77.832C87.8526 77.48 87.3566 77.016 87.0286 76.44C86.7006 75.864 86.5366 75.24 86.5366 74.568C86.5366 73.808 86.7006 73.18 87.0286 72.684C87.3646 72.18 87.8006 71.784 88.3366 71.496C88.8726 71.208 89.4486 71 90.0646 70.872C90.8166 70.72 91.6206 70.588 92.4766 70.476C93.3406 70.356 94.1366 70.256 94.8646 70.176C95.5926 70.096 96.1366 70.032 96.4966 69.984L96.1366 70.224C96.1766 68.696 95.8966 67.56 95.2966 66.816C94.7046 66.064 93.6566 65.688 92.1526 65.688C91.0646 65.688 90.1886 65.932 89.5246 66.42C88.8686 66.9 88.4086 67.64 88.1446 68.64L87.0406 68.352C87.3286 67.152 87.9166 66.24 88.8046 65.616C89.7006 64.992 90.8326 64.68 92.2006 64.68C93.4006 64.68 94.4006 64.924 95.2006 65.412C96.0006 65.9 96.5446 66.56 96.8326 67.392C96.9446 67.712 97.0246 68.1 97.0726 68.556C97.1206 69.012 97.1446 69.456 97.1446 69.888V78H96.2086V74.448L96.6886 74.472C96.3446 75.704 95.6606 76.66 94.6366 77.34C93.6126 78.02 92.4086 78.36 91.0246 78.36ZM90.9766 77.352C91.9126 77.352 92.7366 77.184 93.4486 76.848C94.1686 76.512 94.7486 76.028 95.1886 75.396C95.6366 74.756 95.9206 73.992 96.0406 73.104C96.1046 72.656 96.1366 72.176 96.1366 71.664C96.1366 71.152 96.1366 70.784 96.1366 70.56L96.6646 70.968C96.2406 71.008 95.6526 71.064 94.9006 71.136C94.1566 71.2 93.3686 71.288 92.5366 71.4C91.7046 71.504 90.9526 71.64 90.2806 71.808C89.8886 71.904 89.4846 72.056 89.0686 72.264C88.6526 72.472 88.3006 72.764 88.0126 73.14C87.7326 73.516 87.5926 74 87.5926 74.592C87.5926 75.008 87.6966 75.428 87.9046 75.852C88.1126 76.276 88.4606 76.632 88.9486 76.92C89.4446 77.208 90.1206 77.352 90.9766 77.352ZM102.784 78V65.04H103.72V68.136L103.408 67.728C103.544 67.376 103.716 67.048 103.924 66.744C104.132 66.44 104.336 66.192 104.536 66C104.888 65.656 105.304 65.396 105.784 65.22C106.272 65.036 106.76 64.932 107.248 64.908C107.736 64.876 108.168 64.92 108.544 65.04V66C108.008 65.88 107.44 65.86 106.84 65.94C106.24 66.012 105.68 66.288 105.16 66.768C104.704 67.192 104.38 67.68 104.188 68.232C104.004 68.784 103.892 69.356 103.852 69.948C103.812 70.532 103.792 71.088 103.792 71.616V78H102.784ZM120.039 78C119.391 78.144 118.751 78.196 118.119 78.156C117.487 78.124 116.923 77.976 116.427 77.712C115.931 77.44 115.559 77.032 115.311 76.488C115.119 76.064 115.011 75.636 114.987 75.204C114.963 74.764 114.951 74.264 114.951 73.704V61.44H115.959V73.704C115.959 74.264 115.963 74.716 115.971 75.06C115.987 75.404 116.071 75.728 116.223 76.032C116.511 76.608 116.967 76.964 117.591 77.1C118.215 77.228 119.031 77.208 120.039 77.04V78ZM111.903 66.048V65.04H120.039V66.048H111.903ZM129.814 78.36C128.59 78.36 127.534 78.084 126.646 77.532C125.766 76.98 125.086 76.192 124.606 75.168C124.126 74.144 123.886 72.928 123.886 71.52C123.886 70.104 124.122 68.884 124.594 67.86C125.074 66.836 125.754 66.052 126.634 65.508C127.522 64.956 128.582 64.68 129.814 64.68C131.054 64.68 132.114 64.96 132.994 65.52C133.874 66.08 134.546 66.892 135.01 67.956C135.482 69.02 135.718 70.304 135.718 71.808H134.638V71.472C134.59 69.608 134.15 68.18 133.318 67.188C132.494 66.188 131.326 65.688 129.814 65.688C128.278 65.688 127.086 66.2 126.238 67.224C125.39 68.24 124.966 69.672 124.966 71.52C124.966 73.368 125.39 74.804 126.238 75.828C127.086 76.844 128.278 77.352 129.814 77.352C130.886 77.352 131.826 77.1 132.634 76.596C133.442 76.092 134.086 75.368 134.566 74.424L135.406 74.904C134.878 76.008 134.13 76.86 133.162 77.46C132.194 78.06 131.078 78.36 129.814 78.36ZM124.534 71.808V70.8H135.094V71.808H124.534ZM140.883 78V65.04H141.819V68.136L141.507 67.728C141.643 67.376 141.815 67.048 142.023 66.744C142.231 66.44 142.435 66.192 142.635 66C142.987 65.656 143.403 65.396 143.883 65.22C144.371 65.036 144.859 64.932 145.347 64.908C145.835 64.876 146.267 64.92 146.643 65.04V66C146.107 65.88 145.539 65.86 144.939 65.94C144.339 66.012 143.779 66.288 143.259 66.768C142.803 67.192 142.479 67.68 142.287 68.232C142.103 68.784 141.991 69.356 141.951 69.948C141.911 70.532 141.891 71.088 141.891 71.616V78H140.883Z" fill="black"/>
</svg>
